<svg width="0" height="0"><symbol xmlns="http://www.w3.org/2000/svg" id="about" viewBox="0 0 20 20"><g clip-path="url(#a)"><path d="M8.333 6.667h5v1.11h-5v-1.11Zm0 2.222h5V10h-5V8.889Zm0 2.222h5v1.111h-5v-1.11Zm0 2.222h5v1.111h-5v-1.11ZM6.111 4.444h1.111v1.112h-1.11V4.444Zm0 2.223h1.111v1.11h-1.11v-1.11Zm0 2.222h1.111V10h-1.11V8.889Zm0 2.222h1.111v1.111h-1.11v-1.11Zm0 2.222h1.111v1.111h-1.11v-1.11Zm2.222-8.889v1.112h4.811a4.14 4.14 0 0 1-.494-1.112H8.333Z"/><path d="M15.556 7.344v10.434H4.444V2.222h8.212a4.14 4.14 0 0 1 .488-1.11h-8.7a1.111 1.111 0 0 0-1.11 1.11v15.556a1.111 1.111 0 0 0 1.11 1.11h11.111a1.111 1.111 0 0 0 1.112-1.11V7.5a4.162 4.162 0 0 1-1.112-.156Z"/><path d="M16.667 6.111a2.778 2.778 0 1 0 0-5.555 2.778 2.778 0 0 0 0 5.555Z"/></g><defs><clipPath id="a"><path d="M0 0h20v20H0z"/></clipPath></defs></symbol><symbol xmlns="http://www.w3.org/2000/svg" id="articles" fill="none" viewBox="0 0 20 20"><path fill="currentColor" d="M18.889 20H1.11c-.295 0-.577-.105-.786-.293A.952.952 0 0 1 0 19V1C0 .735.117.48.325.293.534.105.816 0 1.111 0H18.89c.295 0 .577.105.786.293A.952.952 0 0 1 20 1v18c0 .265-.117.52-.325.707a1.177 1.177 0 0 1-.786.293Zm-1.111-2V2H2.222v16h15.556ZM4.444 4H8.89v4H4.444V4Zm0 6h11.112v2H4.444v-2Zm0 4h11.112v2H4.444v-2Zm6.667-9h4.445v2H11.11V5Z"/></symbol><symbol xmlns="http://www.w3.org/2000/svg" id="home" viewBox="0 0 20 20"><path d="M.415 9.84 8.939.818 9.51.214A.676.676 0 0 1 10 0c.184 0 .36.077.49.214l9.095 9.625c.134.141.239.309.31.493.072.185.107.383.105.582-.009.822-.655 1.478-1.432 1.478h-.937V20H2.369v-7.608h-.957c-.377 0-.733-.156-1-.439a1.494 1.494 0 0 1-.306-.485A1.562 1.562 0 0 1 0 10.895c0-.397.148-.773.415-1.056Zm8.35 8.478h2.47v-4.765h-2.47v4.765Zm-4.807-7.607v7.607h3.395v-5.325c0-.517.395-.935.882-.935h3.53c.487 0 .882.418.882.935v5.325h3.395v-7.607h2.118L9.998 2.075l-.51.54-7.65 8.096h2.12Z"/></symbol><symbol xmlns="http://www.w3.org/2000/svg" id="profile" fill="none" viewBox="0 0 17 20"><path fill="currentColor" d="M10.074 8.276h4.408v1.38h-4.408v-1.38Zm0-3.448H17v1.379h-6.926v-1.38Zm0-3.449H17v1.38h-6.926v-1.38ZM5.037 20H2.52a1.21 1.21 0 0 1-.89-.405 1.453 1.453 0 0 1-.37-.974v-4.828a1.21 1.21 0 0 1-.889-.405 1.453 1.453 0 0 1-.37-.974V8.276a2.204 2.204 0 0 1 .135-.798c.093-.253.232-.483.408-.676.177-.194.387-.346.618-.448.231-.102.479-.152.728-.147h3.778c.25-.005.497.045.728.147.231.102.441.254.618.448.176.193.315.423.408.676.094.253.14.525.135.798v4.138a1.453 1.453 0 0 1-.37.974 1.21 1.21 0 0 1-.89.405v4.828a1.453 1.453 0 0 1-.37.974 1.21 1.21 0 0 1-.889.405ZM1.89 7.586a.548.548 0 0 0-.247.041.592.592 0 0 0-.21.149.661.661 0 0 0-.135.23.708.708 0 0 0-.037.27v4.138H2.52v6.207h2.518v-6.207h1.26V8.276a.708.708 0 0 0-.038-.27.661.661 0 0 0-.136-.23.592.592 0 0 0-.21-.149.548.548 0 0 0-.246-.04H1.889Zm1.889-2.069c-.498 0-.985-.162-1.4-.465a2.72 2.72 0 0 1-.927-1.238 3.004 3.004 0 0 1-.143-1.594 2.849 2.849 0 0 1 .69-1.412A2.459 2.459 0 0 1 3.286.053 2.316 2.316 0 0 1 4.742.21c.46.209.853.562 1.13 1.016.277.454.425.987.425 1.533a2.906 2.906 0 0 1-.74 1.948 2.42 2.42 0 0 1-1.779.81Zm0-4.138c-.249 0-.492.081-.7.233a1.36 1.36 0 0 0-.463.619c-.096.252-.12.53-.072.797.049.267.168.513.345.706.176.193.4.324.644.377.245.054.498.026.728-.078.23-.104.427-.281.565-.508a1.48 1.48 0 0 0 .212-.766 1.453 1.453 0 0 0-.37-.974 1.21 1.21 0 0 0-.889-.406Z"/></symbol></svg>